<svg xmlns="http://www.w3.org/2000/svg" width="33" height="29" viewBox="0 0 32.129 28.566"><g fill="none" stroke="#293f54" stroke-width=".567" stroke-miterlimit="10"><path d="M31.846 27.283a1 1 0 0 1-1 1H1.283a1 1 0 0 1-1-1v-26a1 1 0 0 1 1-1h29.563a1 1 0 0 1 1 1v26z"/><path d="M.096 7.22h31.687"/></g><g fill="#00b1cc"><circle cx="2.846" cy="3.846" r=".813"/><circle cx="6.846" cy="3.846" r=".813"/><circle cx="10.846" cy="3.846" r=".813"/></g><g fill="#293f54"><circle cx="16.221" cy="3.846" r=".5"/><circle cx="18.746" cy="3.846" r=".5"/><circle cx="21.271" cy="3.846" r=".5"/><circle cx="23.796" cy="3.846" r=".5"/><circle cx="26.32" cy="3.846" r=".5"/><circle cx="28.846" cy="3.846" r=".5"/></g><circle fill="#ff6d35" cx="11.273" cy="12.26" r=".649"/><g fill="none" stroke="#293f54" stroke-miterlimit="10" stroke-width=".454" stroke-linejoin="round"><path d="M18.68 17.19H10.4c-.55 0-.995-.446-.995-.996v-4.42c0-.55.446-.995.995-.995h8.28c.55 0 .996.446.996.995v4.42c0 .55-.446.996-.996.996z"/><path stroke-linecap="round" d="M19.676 12.967h1.498a.69.69 0 0 1 .69.689v5.03a.69.69 0 0 1-.69.689H12.28a.69.69 0 0 1-.689-.689V17.19"/></g><path fill="#00c2ca" d="M18.11 12.908h-1a.37.37 0 0 1-.369-.369v-.56a.37.37 0 0 1 .369-.37h1a.37.37 0 0 1 .37.37v.56a.37.37 0 0 1-.37.369z"/><path d="M11.387 15.53h6.83m-4.667 2.835h6.884" fill="none" stroke="#293f54" stroke-miterlimit="10" stroke-width=".454" stroke-linejoin="round" stroke-linecap="round" stroke-dasharray="0,1.2118"/><path fill="#00c2ca" d="M12.37 11.6c-.12 0-.23.035-.326.092a.95.95 0 0 1 0 1.116c.096.056.207.09.326.09a.65.65 0 0 0 .649-.648c.001-.36-.29-.65-.65-.65z"/><path fill="#293f54" d="M11.38 22.99c0-.118.098-.164.26-.164a1.7 1.7 0 0 1 .755.195v-.716a2 2 0 0 0-.755-.141c-.618 0-1.03.323-1.03.862 0 .84 1.157.706 1.157 1.068 0 .14-.122.186-.293.186-.252 0-.575-.104-.83-.243v.725a2.11 2.11 0 0 0 .831.174c.634 0 1.068-.314 1.068-.858-.002-.908-1.162-.746-1.162-1.088zm2.058-1.433l-.743.158-.003 2.438c0 .45.338.783.788.783.25 0 .433-.046.533-.1v-.618c-.098.04-.58.18-.58-.27v-1.08h.58v-.65h-.58l.004-.66zm1.522.885l-.048-.226h-.658v2.665h.76v-1.806c.18-.234.484-.192.58-.16v-.7c-.098-.035-.453-.102-.634.226zm.82-.225h.764v2.665h-.764v-2.665zm0-.23l.764-.165v-.618l-.764.16v.622zm2.355.18c-.3 0-.49.14-.598.238l-.04-.19h-.67v3.55l.76-.16.003-.862a.85.85 0 0 0 .539.191c.545 0 1.04-.438 1.04-1.403-.003-.884-.505-1.365-1.037-1.365zm-.184 2.1a.45.45 0 0 1-.359-.144l-.003-1.13c.08-.088.188-.148.362-.148.277 0 .47.31.47.71 0 .408-.19.713-.47.713zm3.62-.703c0-.78-.377-1.396-1.1-1.396s-1.164.615-1.164 1.39c0 .916.52 1.38 1.26 1.38.362 0 .637-.082.844-.197v-.61a1.61 1.61 0 0 1-.746.168c-.295 0-.557-.104-.59-.463h1.49l.006-.27zm-1.504-.29c0-.344.2-.487.4-.487s.385.144.385.487h-.786z"/></svg>