<svg xmlns="http://www.w3.org/2000/svg" width="18" height="20" viewBox="0 0 18 20" fill="none">
    <path d="M11.6395 0.83313L12.1378 1.76461C12.4747 2.39435 12.6432 2.70922 12.5318 2.84407C12.4204 2.97892 12.0536 2.87001 11.3199 2.6522C10.5864 2.43443 9.80763 2.31726 9.00065 2.31726C4.6284 2.31726 1.08398 5.75685 1.08398 9.9998C1.08398 11.3991 1.4695 12.7111 2.14309 13.8411M6.36176 19.1665L5.86345 18.235C5.52655 17.6052 5.3581 17.2904 5.46949 17.1555C5.58087 17.0207 5.94773 17.1296 6.68139 17.3474C7.41489 17.5652 8.19367 17.6823 9.00065 17.6823C13.3729 17.6823 16.9173 14.2427 16.9173 9.9998C16.9173 8.60047 16.5318 7.28853 15.8582 6.15853" stroke="#99A0AE" stroke-width="1.5" stroke-linecap="round" stroke-linejoin="round"/>
</svg>
