<svg xmlns="http://www.w3.org/2000/svg" xmlns:xlink="http://www.w3.org/1999/xlink"><symbol viewBox="0 0 64 64" id="wpgb-activity-icon"><path fill="none" stroke="currentColor" stroke-linecap="square" stroke-miterlimit="10" d="M37 40.535A72.673 72.673 0 0028 40c-11.14 0-18.494 2.331-22.453 4.087A5.977 5.977 0 002 49.567V60h34M14 16c0-7.732 6.268-14 14-14s14 6.268 14 14-6.268 16-14 16-14-8.268-14-16z"/><path fill="none" stroke="currentColor" stroke-miterlimit="10" d="M43.2 49c.927-4.564 4.962-8 9.8-8 4.099 0 7.456 2.47 9 6M62.8 53c-.927 4.564-4.962 8-9.8 8-4.099 0-7.456-2.47-9-6"/><path fill="none" stroke="currentColor" stroke-linecap="square" stroke-miterlimit="10" d="M62 40v7h-7M44 62v-7h7"/></symbol><symbol viewBox="0 0 64 64" id="wpgb-button-icon"><path fill="none" stroke="currentColor" stroke-linecap="square" stroke-miterlimit="10" d="M2 2h60v60H2z"/><path fill="none" stroke="currentColor" stroke-miterlimit="10" d="M16 50l14-36h4l14 36M22.222 34h19.556"/><path fill="none" stroke="currentColor" stroke-linecap="square" stroke-miterlimit="10" d="M12 50h8M44 50h8"/></symbol><symbol viewBox="0 0 64 64" id="wpgb-description-icon"><path fill="none" stroke="currentColor" stroke-linecap="square" stroke-miterlimit="10" d="M8 2h48v60H8zM20 16h24M20 26h24M20 36h24M20 46h8"/></symbol><symbol viewBox="0 0 64 64" id="wpgb-lessons-icon"><path d="M7 41V13a5 5 0 015-5h40a5 5 0 015 5v28M40 47v4H24v-4H2v1a8 8 0 008 8h44a8 8 0 008-8v-1z" fill="none" stroke="currentColor" stroke-linecap="square" stroke-miterlimit="10"/><path fill="none" stroke="currentColor" stroke-linecap="square" stroke-miterlimit="10" d="M27 21v14l12-7-12-7z"/></symbol><symbol viewBox="0 0 64 64" id="wpgb-percent-icon"><circle fill="none" stroke="currentColor" stroke-linecap="square" stroke-miterlimit="10" cx="32" cy="32" r="30"/><circle fill="none" stroke="currentColor" stroke-linecap="square" stroke-miterlimit="10" cx="22" cy="22" r="5"/><circle fill="none" stroke="currentColor" stroke-linecap="square" stroke-miterlimit="10" cx="42" cy="42" r="5"/><path fill="none" stroke="currentColor" stroke-linecap="square" stroke-miterlimit="10" d="M19 45l26-26"/></symbol><symbol viewBox="0 0 64 64" id="wpgb-price-icon"><circle fill="none" stroke="currentColor" stroke-linecap="square" stroke-miterlimit="10" cx="32" cy="32" r="30"/><path fill="none" stroke="currentColor" stroke-linecap="square" stroke-miterlimit="10" d="M32 12v40M42 20c-4.545-2.361-19.148-4.145-19.148 3.983 0 9.731 18.182 6.296 18.182 14.882s-11.818 7.942-20 5.151"/></symbol><symbol viewBox="0 0 64 64" id="wpgb-progress-bar-icon"><path fill="none" stroke="currentColor" stroke-linecap="square" stroke-miterlimit="10" d="M34 12h27M3 12h9"/><circle cx="20" cy="12" r="8" fill="none" stroke="currentColor" stroke-linecap="square" stroke-miterlimit="10"/><path fill="none" stroke="currentColor" stroke-linecap="square" stroke-miterlimit="10" d="M34 52h27M3 52h9"/><circle cx="20" cy="52" r="8" fill="none" stroke="currentColor" stroke-linecap="square" stroke-miterlimit="10"/><path fill="none" stroke="currentColor" stroke-linecap="square" stroke-miterlimit="10" d="M3 32h27M52 32h9"/><circle cx="44" cy="32" r="8" fill="none" stroke="currentColor" stroke-linecap="square" stroke-miterlimit="10"/></symbol><symbol viewBox="0 0 64 64" id="wpgb-progress-circle-icon"><path d="M41 55.436A23 23 0 1120 15.79M61 38A35 35 0 0026 3v35l28.839 19.827A34.831 34.831 0 0061 38z" fill="none" stroke="currentColor" stroke-linecap="square" stroke-miterlimit="10"/></symbol><symbol viewBox="0 0 64 64" id="wpgb-ribbon-icon"><path d="M55 60L32 47 9 60V8a5 5 0 015-5h36a5 5 0 015 5z" fill="none" stroke="currentColor" stroke-linecap="square" stroke-miterlimit="10"/></symbol><symbol viewBox="0 0 64 64" id="wpgb-schedule-icon"><path fill="none" stroke="currentColor" stroke-linecap="square" stroke-miterlimit="10" d="M32 3v9M61 32h-9M32 61v-9M3 32h9M20 16l12 16h12"/><circle cx="32" cy="32" r="29" fill="none" stroke="currentColor" stroke-linecap="square" stroke-miterlimit="10"/></symbol><symbol viewBox="0 0 64 64" id="wpgb-status-icon"><path d="M60.628 27.372a29 29 0 10-33.256 33.256z" fill="none" stroke="currentColor" stroke-linecap="square" stroke-miterlimit="10"/><path d="M60.628 27.372a29 29 0 00-33.256 33.256" fill="none" stroke="currentColor" stroke-miterlimit="10"/></symbol><symbol viewBox="0 0 64 64" id="wpgb-steps-icon"><path fill="none" stroke="currentColor" stroke-linecap="square" stroke-miterlimit="10" d="M24 12h38M24 32h23M24 52h38M4 6h4v12M4 18h8M13 38H4v-1l7.2-5.4c.504-.378.8-.97.8-1.6v-2a2 2 0 00-2-2H6a2 2 0 00-2 2v1M8 52h2a2 2 0 002-2v-2a2 2 0 00-2-2H6a2 2 0 00-2 2h0M8 52h2a2 2 0 012 2v2a2 2 0 01-2 2H6a2 2 0 01-2-2h0"/></symbol></svg>