<?xml version="1.0" encoding="UTF-8"?>
<svg width="20px" height="23px" viewBox="0 0 20 23" version="1.1" xmlns="http://www.w3.org/2000/svg" xmlns:xlink="http://www.w3.org/1999/xlink">
    <title>Fill 17</title>
    <g id="Page-1" stroke="none" stroke-width="1" fill="none" fill-rule="evenodd">
        <path d="M17.17135,3.36443592 C17.445281,3.47072574 17.4753041,3.52569458 17.4927593,3.79809929 C17.4927593,8.84298972 17.5090509,13.8879257 17.4927593,18.9328162 C17.4748386,20.7783649 15.8629045,22.4746473 13.8581109,22.4933654 C11.0059232,22.5022115 8.15373549,22.5022115 5.30154777,22.4933654 C3.40660591,22.4756733 1.68551834,20.864751 1.6668994,18.9327934 L1.66666667,3.79809929 C1.66666667,3.79809929 1.88241355,3.10276964 2.38163368,3.41308939 C2.51312989,3.49487008 2.58760562,3.64194764 2.59761329,3.79809929 C2.59761329,8.84684278 2.54897133,13.8958143 2.59784603,18.9443298 C2.62018875,20.313763 3.81738611,21.5584391 5.2896782,21.5812383 C8.14977897,21.6079134 11.0098797,21.6079134 13.8699805,21.5812383 C15.2833902,21.5593511 16.5571579,20.359065 16.5618127,18.9089682 L16.5618127,3.79809929 C16.5804316,3.5083216 16.8513371,3.28397759 17.17135,3.36443592 Z M9.63,4.16753538 C9.83541667,4.20651927 9.988125,4.39224001 10,4.63035845 L10,19.5345933 C9.97833333,19.9657915 9.80875,19.974897 9.63,19.9974164 C9.39708333,20.0267591 9.18020833,19.8020079 9.16666667,19.5345933 L9.16666667,4.63035845 C9.18,4.36590143 9.37083333,4.15125716 9.63,4.16753538 Z M12.7966667,4.16753605 C13.0020833,4.20655013 13.1547917,4.3924147 13.1666667,4.63071755 L13.1666667,19.5464949 C13.1477083,19.9244701 12.7060417,20.1563638 12.4554167,19.876087 C12.3829167,19.7948193 12.343125,19.7393746 12.3333333,19.5464949 L12.3333333,4.63071755 C12.3466667,4.36605573 12.5375,4.15124523 12.7966667,4.16753605 Z M6.29666667,4.16753626 C6.50208333,4.20655969 6.65479167,4.3924688 6.66666667,4.63082875 L6.66666667,19.5501802 C6.6475,19.9319757 6.196875,20.1499615 5.95541667,19.8798513 C5.88291667,19.7985641 5.843125,19.7431061 5.83333333,19.5501802 L5.83333333,4.63082875 C5.84666667,4.36610351 6.0375,4.15124153 6.29666667,4.16753626 Z M19.529928,2.5 L0.462110121,2.5 C0.442926741,2.49898496 0.423512235,2.49798907 0.404328855,2.49697403 C0.0111851185,2.43484597 0.0132652441,2.303791 0.000784490551,2.14102084 C-0.0147008888,1.93445079 0.201169922,1.74753035 0.462110121,1.73393266 L5.77798663,1.73393266 L5.77821775,0.66346846 C5.79393426,0.321591757 6.14524436,0.0237256229 6.56635423,0.0104343545 C8.80826736,-0.0129306994 11.0504116,0.0102428377 13.2925559,0.0102428377 C13.7175949,0.0146477249 14.0931731,0.318412577 14.098489,0.678157801 L14.098489,1.73393266 L19.529928,1.73393266 C19.529928,1.73393266 20.2785421,1.9681386 19.8863229,2.36111199 C19.8001132,2.44731372 19.6690653,2.49274151 19.529928,2.5 Z M6.66666667,1.66666667 L13.3538284,1.66666667 L13.3538284,0.833333333 L6.66666667,0.833333333 L6.66666667,1.66666667 Z" id="Fill-17" fill="#8E0000"></path>
    </g>
</svg>