<?xml version="1.0" encoding="UTF-8"?>
<svg width="71px" height="73px" viewBox="0 0 71 73" version="1.1" xmlns="http://www.w3.org/2000/svg" xmlns:xlink="http://www.w3.org/1999/xlink">
    <title>blacklist</title>
    <g id="Page-1" stroke="none" stroke-width="1" fill="none" fill-rule="evenodd">
        <g id="General-options" transform="translate(-331.000000, -728.000000)" stroke="#333333" stroke-width="1.44">
            <g id="blacklist" transform="translate(332.000000, 729.000000)">
                <g id="Group">
                    <path d="M64.5952677,37.8019925 C64.8569112,36.0330454 64.9921645,34.2477018 65,32.4595268 C65,14.5773306 50.5036158,0.0809464508 32.6214197,0.0809464508 L32.0547945,0.0809464508 C20.8453078,0.201095977 10.4954928,6.11090159 4.69489415,15.7036115 C1.63027459,20.7558695 0.00667163556,26.5504524 0,32.4595268 C0,38.3840696 1.59362746,44.1995392 4.6139477,49.2963885 C10.4098168,58.9445093 20.8001791,64.8906163 32.0547945,65 L32.9452055,65 C34.8738765,64.9805576 36.7970692,64.7909471 38.6924035,64.4333748" id="Path"></path>
                    <path d="M49.7011208,35.7783313 C49.7011208,34.7260274 49.7011208,33.5927771 49.7011208,32.4595268 C49.7353886,26.7841237 48.9167878,21.1357785 47.2727273,15.7036115 C44.358655,6.31382316 38.6924035,0.323785803 32.9452055,2.0220438e-15 L32.0547945,2.0220438e-15 C25.9838107,0.323785803 20.641345,6.31382316 17.6463263,15.7036115 C16.0022657,21.1357785 15.183665,26.7841237 15.2179328,32.4595268 C15.1816746,38.1616184 16.0002312,43.836944 17.6463263,49.2963885 C20.641345,58.5242839 25.7409714,64.7571606 32.0547945,65 L32.4595268,65" id="Path"></path>
                    <path d="M49.6201743,36.8306351 C49.7025413,35.3747631 49.7025413,33.9153988 49.6201743,32.4595268 C49.6544421,26.7841237 48.8358414,21.1357785 47.1917808,15.7036115 C44.358655,6.31382316 38.6924035,0.323785803 32.9452055,2.0220438e-15 L32.0547945,2.0220438e-15 C25.9838107,0.323785803 20.641345,6.31382316 17.6463263,15.7036115 C16.0022657,21.1357785 15.183665,26.7841237 15.2179328,32.4595268 C15.1816746,38.1616184 16.0002312,43.836944 17.6463263,49.2963885 C20.641345,58.5242839 25.7409714,64.7571606 32.0547945,65 L32.4595268,65" id="Path"></path>
                    <line x1="32.5404732" y1="2.0220438e-15" x2="32.5404732" y2="65" id="Path"></line>
                    <g transform="translate(0.000000, 11.656289)" id="Path">
                        <polyline points="4.69489415 4.04732254 17.7272727 4.04732254 32.5404732 4.04732254 47.2727273 4.04732254 60.3051059 4.04732254"></polyline>
                        <line x1="0" y1="20.8841843" x2="65" y2="20.8841843"></line>
                        <polyline points="4.6139477 37.6400996 4.6139477 37.6400996 17.6463263 37.6400996 17.7272727 37.6400996 32.5404732 37.6400996 39.7447073 37.6400996"></polyline>
                    </g>
                </g>
                <g id="Group" transform="translate(43.000000, 38.000000)">
                    <rect id="Rectangle" x="0" y="13.0198511" width="26" height="19.9801489"></rect>
                    <path d="M4.14012739,13.0198511 L4.14012739,8.18858561 C4.14012739,3.66615465 7.84732373,0 12.4203822,0 C14.6781687,0.0272326624 16.8402529,0.90592368 18.4649682,2.45657568 C20.1079,4.0476887 21.0077693,6.24279257 20.9490446,8.51612903 L20.9490446,13.3473945" id="Path"></path>
                    <line x1="13" y1="28.7419355" x2="13" y2="24.2382134" id="Path"></line>
                    <path d="M15.8980892,21.3722084 C15.6563915,22.7913573 14.4138464,23.830493 12.9585987,23.830493 C11.503351,23.830493 10.2608059,22.7913573 10.0191083,21.3722084 C10.2608059,19.9530595 11.503351,18.9139238 12.9585987,18.9139238 C14.4138464,18.9139238 15.6563915,19.9530595 15.8980892,21.3722084 L15.8980892,21.3722084 Z" id="Path"></path>
                </g>
            </g>
        </g>
    </g>
</svg>