<?xml version="1.0" encoding="UTF-8"?>
<svg width="23px" height="23px" viewBox="0 0 23 23" version="1.1" xmlns="http://www.w3.org/2000/svg" xmlns:xlink="http://www.w3.org/1999/xlink">
    <title>Fill 16</title>
    <g id="Page-1" stroke="none" stroke-width="1" fill="none" fill-rule="evenodd">
        <path d="M18.45195,0.022390886 C20.8158143,0.0671726581 22.9400528,2.0814338 22.9873807,4.55591377 C23.0156395,9.16889559 22.9876104,13.7823367 22.9876104,18.3955482 C22.9729066,20.7889617 20.9345934,22.9400943 18.45195,22.9867133 C13.8367972,23.0163381 9.22164437,22.9871726 4.60649156,22.9871726 C2.2141386,22.9715563 0.0607222727,20.9347895 0.0133944412,18.45342 C-0.0164726369,13.8402085 0.0129349477,9.22676742 0.0129349477,4.61355595 C0.0283279802,2.22289827 2.06618169,0.0694691592 4.54859538,0.022390886 C9.18304691,-0.00746362868 13.8177282,-0.00746362868 18.45195,0.022390886 Z M4.56575879,0.8649362 C2.64075039,0.877189682 0.903480016,2.51337634 0.865331279,4.51601146 C0.835274698,9.15545722 0.86486887,13.794903 0.86486887,18.4343487 C0.877353911,20.3618446 2.51936805,22.0972151 4.51628104,22.1346691 C9.1556299,22.1647248 13.7954412,22.1351315 18.4350212,22.1351315 C20.3574864,22.1226468 22.0973,20.4806802 22.1354487,18.483825 C22.1638869,13.8443793 22.13568,9.20493354 22.13568,4.56548779 C22.1238885,2.64030391 20.4871921,0.903083833 18.484499,0.865167398 C13.8449189,0.835342885 9.20533886,0.8649362 4.56575879,0.8649362 Z M18.1098979,5.96309169 C18.4123628,6.00708484 18.5845006,6.37931822 18.3929871,6.65715851 L10.6478055,16.6944325 C10.5038134,16.8612221 10.2700813,16.8949645 10.0879497,16.7693917 L5.39699046,13.1388884 C5.070051,12.8559227 5.36252211,12.0937305 5.88199485,12.451869 L10.2586598,15.8393422 L17.7584838,6.12027113 C17.7584838,6.12027113 17.9406154,5.95775271 18.1098979,5.96309169 Z" id="Fill-16" fill="#000000"></path>
    </g>
</svg>